<svg width="79" height="79" viewBox="0 0 79 79" fill="none" xmlns="http://www.w3.org/2000/svg">
<path d="M71.9394 33.9141C72.2225 35.7376 72.4167 37.5941 72.4167 39.5C72.4167 59.4969 56.2052 75.7084 36.2083 75.7084C16.2115 75.7084 0 59.4969 0 39.5C0 19.5031 16.2115 3.29169 36.2083 3.29169C43.9372 3.29169 51.0801 5.73081 56.959 9.85198L52.2815 14.6479C47.6469 11.6426 42.1333 9.87502 36.2083 9.87502C19.8718 9.87502 6.58333 23.1668 6.58333 39.5C6.58333 55.8333 19.8718 69.125 36.2083 69.125C52.3178 69.125 65.435 56.1954 65.8004 40.1748L71.9394 33.9141ZM68.809 7.13306L37.8542 38.8614L25.2043 26.9654L15.0166 37.1629L37.8542 59.25L79 17.3241L68.809 7.13306V7.13306Z" fill="white"/>
</svg>
