<svg width="38" height="38" viewBox="0 0 38 38" fill="none" xmlns="http://www.w3.org/2000/svg">
<path d="M38 4.75L36.8236 7.91667H33.7693L28.2688 26.9167H7.30708L0 9.5H26.619L25.726 12.6667H4.76267L9.41292 23.75H25.9239L31.3579 4.75H38V4.75ZM13.4583 28.5C12.1473 28.5 11.0833 29.564 11.0833 30.875C11.0833 32.1876 12.1473 33.25 13.4583 33.25C14.7693 33.25 15.8333 32.1876 15.8333 30.875C15.8333 29.564 14.7693 28.5 13.4583 28.5ZM24.3833 17.4167L21.375 28.5C20.064 28.5 19 29.5624 19 30.875C19 32.1876 20.064 33.25 21.375 33.25C22.686 33.25 23.75 32.1876 23.75 30.875C23.75 29.564 22.686 28.5 21.375 28.5L24.3833 17.4167Z" fill="white"/>
</svg>
