<svg width="79" height="79" viewBox="0 0 79 79" fill="none" xmlns="http://www.w3.org/2000/svg">
<path fill-rule="evenodd" clip-rule="evenodd" d="M79 62.5417H75.7083V55.3C69.6089 69.2468 55.6851 79 39.5 79C17.6993 79 0 61.3007 0 39.5H3.29167C3.29167 59.4837 19.5163 75.7083 39.5 75.7083C54.8392 75.7083 67.963 66.1493 73.2363 52.6667H65.8333V49.375H79V62.5417V62.5417ZM42.6732 62.5417H36.4651C35.3459 59.3915 35.0266 57.3705 32.5908 56.3599H32.5875C30.1418 55.3461 28.4696 56.5607 25.4709 57.986L21.0831 53.5982C22.4887 50.639 23.7296 48.9405 22.7092 46.4783C21.6954 44.0425 19.6611 43.7166 16.5275 42.604V36.396C19.6677 35.2801 21.6954 34.9575 22.7092 32.5184C23.723 30.0727 22.5117 28.4104 21.0831 25.4018L25.4709 21.014C28.4927 22.4492 30.1484 23.6506 32.5875 22.6401L32.5908 22.6368C35.0266 21.6263 35.3492 19.5953 36.4651 16.4583H42.6732C43.7923 19.6118 44.1116 21.6263 46.5475 22.6368L46.5508 22.6401C48.9965 23.6539 50.6719 22.436 53.6673 21.014L58.0551 25.4018C56.6232 28.4203 55.4185 30.0793 56.429 32.5151V32.5184C57.4396 34.9509 59.4409 35.2669 62.6108 36.396V42.604C59.4738 43.7166 57.4396 44.0425 56.429 46.4816C55.4152 48.9273 56.6265 50.5929 58.0551 53.5982L53.6673 57.986C50.639 56.5442 48.9932 55.3461 46.5672 56.3533C44.1116 57.3738 43.789 59.4014 42.6732 62.5417V62.5417ZM39.5691 47.1795C35.3262 47.1795 31.8897 43.743 31.8897 39.5C31.8897 35.257 35.3262 31.8173 39.5691 31.8173C43.8121 31.8173 47.2486 35.257 47.2486 39.5C47.2486 43.743 43.8121 47.1795 39.5691 47.1795ZM13.1667 29.625H0V16.4583H3.29167V23.7C9.39113 9.75321 23.3149 0 39.5 0C61.3007 0 79 17.6993 79 39.5H75.7083C75.7083 19.5163 59.4837 3.29167 39.5 3.29167C24.1608 3.29167 11.037 12.8507 5.76371 26.3333H13.1667V29.625V29.625Z" fill="white"/>
</svg>
