<svg width="79" height="79" viewBox="0 0 79 79" fill="none" xmlns="http://www.w3.org/2000/svg">
<path d="M39.5 6.58333C57.6503 6.58333 72.4167 21.3498 72.4167 39.5C72.4167 57.6503 57.6503 72.4167 39.5 72.4167C21.3498 72.4167 6.58333 57.6503 6.58333 39.5C6.58333 21.3498 21.3498 6.58333 39.5 6.58333ZM39.5 0C17.6861 0 0 17.6861 0 39.5C0 61.3139 17.6861 79 39.5 79C61.3139 79 79 61.3139 79 39.5C79 17.6861 61.3139 0 39.5 0ZM58.7497 41.0109C59.4146 41.136 59.4146 42.107 58.753 42.2354C52.4758 43.4237 38.8548 45.8924 37.2024 45.8924C34.8357 45.8924 32.92 43.9767 32.92 41.61C32.92 39.9246 35.4545 23.6803 36.6231 17.1035C36.735 16.4715 37.6501 16.5077 37.7521 17.1496L40.9944 37.683L58.7497 41.0109Z" fill="white"/>
</svg>
