<svg width="45" height="45" viewBox="0 0 45 45" fill="none" xmlns="http://www.w3.org/2000/svg">
<g clip-path="url(#clip0)">
<path fill-rule="evenodd" clip-rule="evenodd" d="M32.8125 16.7727C39.5381 16.7727 45 22.2014 45 28.8863C45 35.5711 39.5381 40.9999 32.8125 40.9999C26.0869 40.9999 20.6251 35.5711 20.6251 28.8863C20.6251 22.2014 26.0869 16.7727 32.8125 16.7727ZM18.1838 35.1555L17.5032 36.3389C14.9138 40.7949 9.1726 42.323 4.68949 39.7512C0.206378 37.1776 -1.33112 31.4711 1.25638 27.0152L14.1338 4.66095C15.8682 1.67541 19.0201 0.0037337 22.2582 6.44062e-06C23.8519 -0.00185719 25.4682 0.400687 26.9476 1.24864C31.1569 3.66577 32.7713 8.8448 30.8063 13.1572C28.9707 13.3902 27.2326 13.9325 25.6444 14.7301L27.1313 12.1192C28.6838 9.44675 27.7613 6.0214 25.0707 4.47831C22.3819 2.93522 18.9357 3.85213 17.3832 6.52644L12.0095 15.962L19.4626 20.239C18.782 21.2771 18.2195 22.4008 17.7957 23.588L10.1345 19.1917L4.50574 28.8807C2.95325 31.5531 3.87574 34.9785 6.56636 36.5216C9.2551 38.0647 12.7013 37.1477 14.2538 34.4734L16.9163 29.8908C17.0345 31.7507 17.4751 33.523 18.1838 35.1555V35.1555ZM38.5875 22.7736L30.3732 36.9167C31.1457 37.1477 31.965 37.2726 32.8125 37.2726C37.47 37.2726 41.25 33.5155 41.25 28.8863C41.25 26.4766 40.2263 24.3036 38.5875 22.7736ZM35.3532 20.8876C34.5507 20.636 33.6975 20.4999 32.8125 20.4999C28.155 20.4999 24.3751 24.257 24.3751 28.8863C24.3751 31.3332 25.4307 33.536 27.1144 35.0698L35.3532 20.8876V20.8876Z" fill="white"/>
</g>
<defs>
<clipPath id="clip0">
<rect width="45" height="45" fill="white"/>
</clipPath>
</defs>
</svg>
